<svg width="16" height="17" viewBox="0 0 16 17" fill="none" xmlns="http://www.w3.org/2000/svg">
  <path fill-rule="evenodd" clip-rule="evenodd"
    d="M9.2097 4.8871L9.29289 4.79289C9.65338 4.43241 10.2206 4.40468 10.6129 4.7097L10.7071 4.79289L13.7071 7.79289L13.7485 7.83685L13.8037 7.90469L13.8753 8.01594L13.9288 8.12866L13.9642 8.23401L13.9931 8.3819L14 8.5L13.9972 8.57524L13.9798 8.70073L13.9503 8.81214L13.9063 8.92322L13.854 9.02071L13.7803 9.12545L13.7071 9.20711L10.7071 12.2071C10.3166 12.5976 9.68342 12.5976 9.29289 12.2071C8.93241 11.8466 8.90468 11.2794 9.2097 10.8871L9.29289 10.7929L10.585 9.5H3C2.44772 9.5 2 9.05228 2 8.5C2 7.94772 2.44772 7.5 3 7.5H10.585L9.29289 6.20711C8.93241 5.84662 8.90468 5.27939 9.2097 4.8871L9.29289 4.79289L9.2097 4.8871Z"
    fill="#0199F2" />
</svg>