<svg width="24" height="24" viewBox="0 0 24 24" fill="none" xmlns="http://www.w3.org/2000/svg">
  <path fill-rule="evenodd" clip-rule="evenodd"
    d="M8.00001 13.4264V11.0378H14.61C14.67 11.3862 14.72 11.7345 14.72 12.1923C14.72 16.1733 12.04 18.9998 8.00001 18.9998C4.13 18.9998 1 15.8847 1 12.0331C1 8.1815 4.13 5.06641 8.00001 5.06641C9.89001 5.06641 11.47 5.75312 12.69 6.88769L10.79 8.70898C10.27 8.21136 9.36001 7.63412 8.00001 7.63412C5.61001 7.63412 3.66 9.6047 3.66 12.0331C3.66 14.4615 5.61001 16.432 8.00001 16.432C10.77 16.432 11.81 14.4515 11.97 13.4264H8.00001ZM21 11.0378H23V13.0283H21V15.0188H19V13.0283H17V11.0378H19V9.04734H21V11.0378Z"
    fill="#16222F" />
</svg>