<svg width="24" height="24" viewBox="0 0 24 24" fill="none" xmlns="http://www.w3.org/2000/svg">
  <path fill-rule="evenodd" clip-rule="evenodd"
    d="M14.8286 5.88867V10.389L16.338 11.3793C16.3778 11.3914 16.4641 11.3922 16.5039 11.3793L23 6.81587C23 6.2758 22.5165 5.88867 22.2437 5.88867H14.8286Z"
    fill="#16222F" />
  <path fill-rule="evenodd" clip-rule="evenodd"
    d="M14.8294 11.629L16.2067 12.5755C16.4007 12.7182 16.6345 12.5755 16.6345 12.5755C16.4015 12.7182 23 8.3335 23 8.3335V16.2734C23 17.1377 22.447 17.5002 21.8251 17.5002H14.8286V11.629H14.8294Z"
    fill="#16222F" />
  <path fill-rule="evenodd" clip-rule="evenodd"
    d="M7.63226 9.55566C7.14154 9.55566 6.75053 9.78042 6.46182 10.2291C6.17311 10.6778 6.02832 11.2718 6.02832 12.0111C6.02832 12.7614 6.17311 13.3546 6.46182 13.7906C6.75053 14.2274 7.12941 14.4446 7.59758 14.4446C8.0805 14.4446 8.46371 14.2325 8.74635 13.8083C9.02899 13.3841 9.17118 12.7952 9.17118 12.0424C9.17118 11.2574 9.03419 10.6465 8.75936 10.2097C8.48452 9.77366 8.10911 9.55566 7.63226 9.55566Z"
    fill="#16222F" />
  <path fill-rule="evenodd" clip-rule="evenodd"
    d="M1 3.47887V20.3146L14.2 23V1L1 3.47887ZM9.83301 14.7429C9.2752 15.4551 8.54792 15.8121 7.65032 15.8121C6.77571 15.8121 6.06377 15.4667 5.51277 14.7768C4.96263 14.086 4.68671 13.187 4.68671 12.0781C4.68671 10.9072 4.96604 9.9603 5.52555 9.2373C6.08506 8.51429 6.82596 8.15238 7.74826 8.15238C8.61946 8.15238 9.32459 8.49777 9.86196 9.1902C10.4002 9.88263 10.6693 10.7949 10.6693 11.9277C10.6701 13.0919 10.3908 14.0306 9.83301 14.7429Z"
    fill="#16222F" />
</svg>