<svg width="198" height="35" viewBox="0 0 198 35" fill="none" xmlns="http://www.w3.org/2000/svg">
  <path
    d="M52.1091 8.20508L58.1408 25.9743H54.7375L53.1489 21.298H47.143L45.5673 25.9679H42.3577L47.5724 10.7692L48.4023 8.20508H52.1091ZM47.8211 18.5801H52.4708L50.3397 11.3846H50.1718L47.8211 18.5801Z"
    fill="white" />
  <path
    d="M68.9706 16.1923C68.0957 15.524 67.0294 15.1491 65.9257 15.1218C64.1853 15.1218 62.5224 16.3013 62.5224 19.4583C62.5224 21.5737 63.3264 23.8269 65.8708 23.8269C67.2561 23.8269 68.1957 23.3333 69.2451 22.6442L70.5205 24.6218C69.1476 25.6954 67.4539 26.2851 65.7062 26.2981C61.6377 26.2981 59.4807 23.734 59.4807 19.6506C59.4807 15.1635 62.164 12.7019 65.8708 12.7019C67.4923 12.678 69.0703 13.2228 70.3268 14.2404L68.9706 16.1923Z"
    fill="white" />
  <path
    d="M79.5293 25.9682C79.4357 25.4951 79.316 25.0276 79.1709 24.5675L79.0062 24.5387C77.8438 25.5579 76.8751 26.2983 75.3252 26.2983C73.5815 26.2983 71.8379 25.4457 71.8379 22.6989C71.8379 20.6669 72.7807 19.872 73.7204 19.4586C75.3626 18.8523 77.0445 18.3576 78.7543 17.9778V17.0419C78.7543 15.888 78.5348 15.0098 77.0979 15.0098C75.9322 15.0098 74.1918 15.6156 73.2231 15.9714L72.5579 13.856C74.0788 13.2534 76.2099 12.7021 77.7889 12.7021C80.9145 12.7021 81.6636 14.3528 81.6636 17.2086V22.0419C81.7324 23.3678 81.9368 24.6833 82.2739 25.9682H79.5293ZM78.7543 19.9554C77.2625 20.34 76.239 20.6413 75.464 21.0515C75.2303 21.2013 75.0407 21.4097 74.9142 21.6557C74.7878 21.9017 74.729 22.1764 74.744 22.4521C74.744 23.4425 75.2154 23.9906 76.155 23.9906C77.1495 23.9906 78.1763 23.2759 78.7543 22.6733V19.9554Z"
    fill="white" />
  <path
    d="M93.4493 24.6763C92.3418 25.75 91.2924 26.2981 89.7683 26.2981C86.394 26.2981 84.6504 23.6602 84.6504 19.7628C84.6504 14.7916 87.5016 12.7115 90.4625 12.7115C91.4168 12.7149 92.3497 12.9921 93.149 13.5096V6.85254C94.2103 7.04951 95.2818 7.18754 96.3586 7.266C96.1346 9.17113 96.0321 11.0884 96.0519 13.0064V21.875C96.0936 23.2563 96.2885 24.6289 96.6331 25.9679H93.8658C93.8138 25.5332 93.722 25.104 93.5914 24.6859L93.4493 24.6763ZM93.1458 15.8077C92.4532 15.3068 91.6228 15.0283 90.766 15.0096C89.1322 15.0096 87.776 16.4102 87.776 19.2948C87.776 21.7948 88.4412 23.9359 90.4335 23.9359C91.5119 23.9359 92.4257 23.25 93.1458 22.5352V15.8077Z"
    fill="white" />
  <path
    d="M109.139 22.5642L110.327 24.5129C108.834 25.6901 106.977 26.3205 105.071 26.2982C101.393 26.2982 99.013 23.827 99.013 19.5962C99.0001 15.577 101.225 12.6924 105.071 12.6924C108.642 12.6924 110.217 15.2212 110.217 18.8719L109.249 19.6411L102.145 19.9616C102.2 22.0225 103.03 23.8334 105.355 23.8334C106.869 23.8526 107.948 23.3046 109.139 22.5642ZM107.286 17.7853C107.227 15.9712 106.536 14.8462 104.961 14.8462C103.385 14.8462 102.332 16.1091 102.139 18.0321L107.286 17.7853Z"
    fill="white" />
  <path
    d="M112.93 17.731C112.875 16.6573 112.736 15.0098 112.487 13.1445C113.317 13.0868 114.118 13.0323 115.196 12.8977C115.286 13.4076 115.407 13.9117 115.558 14.4073L115.697 14.4329C116.94 13.3624 117.957 12.7021 119.543 12.7021C120.925 12.7021 122.126 13.1445 122.772 14.5996C123.963 13.5836 125.096 12.7021 126.866 12.7021C129.523 12.7021 130.463 14.3047 130.463 16.8688V25.9586H127.512V17.6252C127.512 15.84 127.066 15.2887 125.988 15.2887C124.854 15.2887 123.886 16.1156 123.195 16.7727V25.9457H120.205V17.6124C120.205 15.8272 119.791 15.2759 118.658 15.2759C117.466 15.2759 116.414 16.2118 115.891 16.7598V25.9329H112.93V17.731Z"
    fill="white" />
  <path
    d="M135.426 13.0322L138.358 21.9329H138.551L141.18 13.0322H144.276L140.725 23.8527C139.284 28.2213 138.345 31.0226 133.004 31.3527L132.478 28.9906C134.832 28.8784 136.437 27.8624 136.905 25.9681L132.119 13.0322H135.426Z"
    fill="white" />
  <path
    d="M156.204 11.7698C154.986 11.0555 153.605 10.6586 152.191 10.6159C150.366 10.6159 149.452 11.4397 149.452 12.5935C149.452 14.0486 150.67 14.5999 152.662 15.3948C155.097 16.3307 157.641 17.3467 157.641 20.6416C157.641 24.43 155.042 26.2986 151.335 26.2986C148.816 26.2986 146.411 25.4204 145.358 24.6512L146.466 22.0422C147.35 22.6191 149.343 23.523 151.28 23.523C153.382 23.523 154.461 22.6993 154.461 21.0518C154.461 19.2409 152.885 18.6095 151.112 17.9781C148.529 17.0422 146.269 16.0262 146.269 12.898C146.269 9.46209 149.007 7.86914 152.187 7.86914C153.931 7.86914 155.894 8.33709 157.225 9.2153L156.204 11.7698Z"
    fill="white" />
  <path
    d="M161.432 13.0322L164.367 21.9329H164.561L167.189 13.0322H170.286L166.734 23.8527C165.294 28.2213 164.354 31.0226 159.014 31.3527L158.487 28.9906C160.841 28.8784 162.446 27.8624 162.914 25.9681L158.129 13.0322H161.432Z"
    fill="white" />
  <path
    d="M172.585 17.731C172.53 16.6573 172.391 15.0098 172.143 13.1445C172.972 13.0868 173.773 13.0323 174.852 12.8977C174.947 13.4066 175.067 13.9104 175.213 14.4073L175.352 14.4329C176.376 13.6092 177.48 12.7021 179.392 12.7021C182.159 12.7021 183.347 14.3047 183.347 16.8688V25.9586H180.386V17.6252C180.386 15.8656 179.889 15.2342 178.504 15.2342C177.344 15.2342 176.243 16.0323 175.546 16.6348V25.9297H172.585V17.731Z"
    fill="white" />
  <path
    d="M195.633 16.1923C194.758 15.524 193.692 15.1491 192.588 15.1218C190.848 15.1218 189.185 16.3013 189.185 19.4583C189.185 21.5737 189.989 23.8269 192.533 23.8269C193.919 23.8269 194.858 23.3333 195.911 22.6442L197.183 24.6218C195.81 25.6954 194.116 26.2851 192.369 26.2981C188.3 26.2981 186.143 23.734 186.143 19.6506C186.143 15.1635 188.827 12.7019 192.533 12.7019C194.155 12.678 195.733 13.2228 196.989 14.2404L195.633 16.1923Z"
    fill="white" />
  <path
    d="M19.897 26.9679L6.35474 21.3141L7.08125 19.6025L19.8873 24.9519L27.8015 21.5481L28.5474 23.25L19.897 26.9679Z"
    fill="white" />
  <path
    d="M18.9959 0.513199C18.3501 0.484353 17.517 0.439482 17.1166 0.596533C17.0521 0.622174 17.2393 0.833713 17.3814 1.06769C17.7624 1.68307 20.3391 5.84012 20.7686 6.42025C21.3111 7.15423 20.478 3.29525 20.9107 3.35294L21.0205 3.36897C21.0205 3.36897 21.0205 3.36897 21.1432 3.39781C23.2541 3.8293 25.242 4.72153 26.9626 6.00984C28.6833 7.29816 30.0937 8.95029 31.0916 10.8465L34.5111 12.1702C33.4169 8.89713 31.3481 6.03054 28.5779 3.94922C25.8077 1.8679 22.4666 0.669792 18.9959 0.513199Z"
    fill="#3BACF4" />
  <path
    d="M21.1528 31.6027V27.5995H20.6362V21.6252L36.5808 15.1124L18.9636 7.65723L1.80811 14.9649L18.1305 21.9553V15.0643C18.0165 14.9741 17.9245 14.8595 17.8613 14.7291C17.7981 14.5987 17.7654 14.4558 17.7656 14.3111C17.7656 14.0535 17.8687 13.8065 18.0522 13.6244C18.2357 13.4422 18.4845 13.3399 18.744 13.3399C19.0035 13.3399 19.2523 13.4422 19.4358 13.6244C19.6193 13.8065 19.7224 14.0535 19.7224 14.3111C19.722 14.4502 19.6912 14.5876 19.6321 14.7138C19.573 14.8399 19.487 14.9519 19.3801 15.0418V22.1348V27.5835H18.8893V32.0707L19.2736 32.8143L20.0162 34.1893L20.0711 34.122C20.1406 34.2258 20.2485 34.2984 20.3714 34.3239C20.4897 34.3319 20.6083 34.3319 20.7266 34.3239C24.6684 33.7475 28.2849 31.8265 30.9548 28.8909C33.6246 25.9553 35.1812 22.1884 35.357 18.2374C35.357 18.0066 35.357 17.7758 35.357 17.5482L32.6512 18.8303C32.3763 21.9046 31.1085 24.8086 29.0367 27.11C26.9649 29.4114 24.1997 30.9872 21.1528 31.6027Z"
    fill="#3BACF4" />
  <path
    d="M15.8445 3.25322C16.5226 3.16347 17.3298 3.20834 17.1522 2.88142C16.7873 2.20193 16.2771 0.682702 15.8219 0.660267C15.7036 0.652307 15.5849 0.652307 15.4667 0.660267C12.1319 1.14926 9.01637 2.60355 6.50998 4.84116C4.00359 7.07878 2.21761 10.0004 1.37549 13.2404L4.53664 12.016C5.48032 9.69844 7.02223 7.6684 9.00727 6.13013C10.9923 4.59186 13.3504 3.59962 15.8445 3.25322Z"
    fill="#3BACF4" />
  <path
    d="M0.839527 16.757C0.649424 21.2601 2.26484 25.6544 5.33201 28.9777C8.39917 32.3009 12.6681 34.2823 17.2039 34.4878C17.8497 34.5166 18.6795 34.5615 19.0799 34.4045C19.1477 34.3788 18.9605 34.1673 18.8152 33.9333C18.4341 33.3179 15.8607 29.1609 15.4312 28.5807C14.8855 27.8468 15.7186 31.7057 15.2859 31.648L15.1761 31.632C15.1761 31.632 15.1761 31.632 15.0566 31.6032C11.8167 30.9394 8.90189 29.1981 6.79412 26.6671C4.68635 24.136 3.51181 20.9668 3.46467 17.6833L0.839527 16.5391C0.839527 16.6128 0.839527 16.6833 0.839527 16.757Z"
    fill="#3BACF4" />
</svg>