<svg width="198" height="36" viewBox="0 0 198 36" fill="none" xmlns="http://www.w3.org/2000/svg">
  <path
    d="M52.1667 8.64746L58.191 26.5269H54.7919L53.2052 21.8216H47.2067L45.6329 26.5204H42.4272L47.6356 11.2275L48.4644 8.64746H52.1667ZM47.8839 19.0868H52.5279L50.3994 11.8467H50.2317L47.8839 19.0868Z"
    fill="#172638" />
  <path
    d="M69.0076 16.6837C68.1337 16.0112 67.0687 15.634 65.9664 15.6065C64.2281 15.6065 62.5673 16.7933 62.5673 19.97C62.5673 22.0985 63.3703 24.3656 65.9116 24.3656C67.2951 24.3656 68.2336 23.869 69.2817 23.1756L70.5556 25.1654C69.1843 26.2456 67.4927 26.839 65.7471 26.8521C61.6836 26.8521 59.5293 24.2721 59.5293 20.1635C59.5293 15.6485 62.2093 13.1717 65.9116 13.1717C67.5311 13.1476 69.1071 13.6958 70.3621 14.7197L69.0076 16.6837Z"
    fill="#172638" />
  <path
    d="M79.553 26.5201C79.4596 26.0442 79.3401 25.5737 79.1951 25.1108L79.0306 25.0818C77.8696 26.1074 76.9021 26.8523 75.3541 26.8523C73.6126 26.8523 71.8711 25.9945 71.8711 23.2307C71.8711 21.186 72.8128 20.3862 73.7513 19.9702C75.3915 19.3602 77.0713 18.8624 78.779 18.4802V17.5385C78.779 16.3775 78.5597 15.4939 77.1246 15.4939C75.9604 15.4939 74.2221 16.1034 73.2546 16.4614L72.5903 14.3329C74.1092 13.7266 76.2377 13.1719 77.8148 13.1719C80.9366 13.1719 81.6848 14.8327 81.6848 17.7062V22.5695C81.7534 23.9037 81.9577 25.2274 82.2943 26.5201H79.553ZM78.779 20.4701C77.2891 20.8571 76.2668 21.1602 75.4928 21.573C75.2594 21.7237 75.0699 21.9335 74.9437 22.1809C74.8174 22.4284 74.7587 22.7049 74.7736 22.9823C74.7736 23.9788 75.2444 24.5303 76.1829 24.5303C77.1762 24.5303 78.2018 23.8111 78.779 23.2049V20.4701Z"
    fill="#172638" />
  <path
    d="M93.4561 25.2213C92.3499 26.3017 91.3018 26.8532 89.7796 26.8532C86.4095 26.8532 84.668 24.199 84.668 20.2774C84.668 15.2754 87.5156 13.1824 90.473 13.1824C91.4261 13.1858 92.3579 13.4647 93.1562 13.9854V7.28711C94.2162 7.4853 95.2864 7.62419 96.3618 7.70313C96.1381 9.62008 96.0358 11.5493 96.0554 13.4791V22.4027C96.0971 23.7926 96.2918 25.1737 96.636 26.521H93.8721C93.8202 26.0836 93.7284 25.6518 93.598 25.231L93.4561 25.2213ZM93.1529 16.2978C92.4612 15.7938 91.6318 15.5135 90.7761 15.4947C89.1443 15.4947 87.7898 16.9041 87.7898 19.8066C87.7898 22.3221 88.4541 24.4764 90.4439 24.4764C91.5211 24.4764 92.4338 23.7862 93.1529 23.067V16.2978Z"
    fill="#172638" />
  <path
    d="M109.126 23.0951L110.313 25.0559C108.822 26.2404 106.967 26.8748 105.063 26.8522C101.39 26.8522 99.0128 24.3658 99.0128 20.1088C98.9999 16.0646 101.222 13.1621 105.063 13.1621C108.63 13.1621 110.203 15.7066 110.203 19.3799L109.236 20.1539L102.141 20.4764C102.196 22.5501 103.025 24.3722 105.347 24.3722C106.859 24.3916 107.936 23.8401 109.126 23.0951ZM107.275 18.2866C107.217 16.4613 106.527 15.3293 104.953 15.3293C103.379 15.3293 102.328 16.6 102.135 18.535L107.275 18.2866Z"
    fill="#172638" />
  <path
    d="M112.913 18.2319C112.858 17.1515 112.719 15.4939 112.471 13.6169C113.3 13.5589 114.099 13.5041 115.176 13.3686C115.266 13.8817 115.387 14.3889 115.538 14.8876L115.676 14.9134C116.918 13.8362 117.934 13.1719 119.517 13.1719C120.898 13.1719 122.097 13.6169 122.742 15.0811C123.932 14.0587 125.064 13.1719 126.832 13.1719C129.486 13.1719 130.424 14.7844 130.424 17.3644V26.5105H127.477V18.1255C127.477 16.3291 127.032 15.7745 125.954 15.7745C124.822 15.7745 123.855 16.6065 123.165 17.2676V26.4976H120.178V18.1126C120.178 16.3163 119.766 15.7615 118.634 15.7615C117.444 15.7615 116.392 16.7033 115.87 17.2547V26.4847H112.913V18.2319Z"
    fill="#172638" />
  <path
    d="M135.381 13.5039L138.309 22.4597H138.503L141.128 13.5039H144.221L140.673 24.3915C139.235 28.7872 138.296 31.6058 132.962 31.938L132.437 29.5612C134.788 29.4483 136.39 28.426 136.858 26.52L132.079 13.5039H135.381Z"
    fill="#172638" />
  <path
    d="M156.134 12.2334C154.917 11.5148 153.538 11.1154 152.125 11.0724C150.303 11.0724 149.391 11.9012 149.391 13.0622C149.391 14.5264 150.606 15.0811 152.596 15.8809C155.028 16.8226 157.569 17.8449 157.569 21.1602C157.569 24.9722 154.973 26.8523 151.271 26.8523C148.755 26.8523 146.353 25.9687 145.301 25.1947L146.407 22.5695C147.291 23.15 149.281 24.0595 151.216 24.0595C153.315 24.0595 154.393 23.2307 154.393 21.573C154.393 19.7509 152.819 19.1156 151.048 18.4802C148.468 17.5385 146.211 16.5162 146.211 13.3686C146.211 9.91142 148.946 8.30859 152.122 8.30859C153.864 8.30859 155.824 8.77945 157.153 9.6631L156.134 12.2334Z"
    fill="#172638" />
  <path
    d="M161.355 13.5039L164.287 22.4597H164.48L167.106 13.5039H170.198L166.651 24.3915C165.212 28.7872 164.274 31.6058 158.94 31.938L158.414 29.5612C160.765 29.4483 162.368 28.426 162.836 26.52L158.056 13.5039H161.355Z"
    fill="#172638" />
  <path
    d="M172.495 18.2319C172.44 17.1515 172.301 15.4939 172.053 13.6169C172.882 13.5589 173.681 13.5041 174.758 13.3686C174.853 13.8807 174.974 14.3877 175.12 14.8876L175.258 14.9134C176.281 14.0845 177.384 13.1719 179.293 13.1719C182.057 13.1719 183.243 14.7844 183.243 17.3644V26.5105H180.286V18.1255C180.286 16.355 179.789 15.7196 178.406 15.7196C177.248 15.7196 176.148 16.5227 175.452 17.129V26.4815H172.495V18.2319Z"
    fill="#172638" />
  <path
    d="M195.514 16.6837C194.641 16.0112 193.576 15.634 192.473 15.6065C190.735 15.6065 189.074 16.7933 189.074 19.97C189.074 22.0985 189.877 24.3656 192.418 24.3656C193.802 24.3656 194.74 23.869 195.792 23.1756L197.062 25.1654C195.691 26.2456 194 26.839 192.254 26.8521C188.19 26.8521 186.036 24.2721 186.036 20.1635C186.036 15.6485 188.716 13.1717 192.418 13.1717C194.038 13.1476 195.614 13.6958 196.869 14.7197L195.514 16.6837Z"
    fill="#172638" />
  <path
    d="M19.9939 27.5263L6.46826 21.8374L7.19389 20.1152L19.9842 25.4978L27.8887 22.0728L28.6337 23.7853L19.9939 27.5263Z"
    fill="#3BACF4" />
  <path
    d="M19.0942 0.907909C18.4492 0.878884 17.6171 0.833735 17.2172 0.99176C17.1527 1.01756 17.3398 1.23041 17.4817 1.46583C17.8622 2.08503 20.4358 6.26786 20.8647 6.85158C21.4065 7.59011 20.5744 3.70721 21.0066 3.76526L21.1162 3.78139C21.1162 3.78139 21.1162 3.78138 21.2388 3.81041C23.3472 4.24457 25.3326 5.14233 27.0511 6.43863C28.7697 7.73494 30.1783 9.39731 31.175 11.3053L34.5903 12.6372C33.4975 9.34382 31.4312 6.45946 28.6644 4.36523C25.8976 2.27101 22.5606 1.06547 19.0942 0.907909Z"
    fill="#172638" />
  <path
    d="M21.2487 32.1897V28.1616H20.7327V22.1503L36.6578 15.5971L19.0622 8.0957L1.92773 15.4487L18.2301 22.4824V15.5487C18.1163 15.4579 18.0243 15.3426 17.9612 15.2114C17.8981 15.0802 17.8655 14.9364 17.8657 14.7908C17.8657 14.5316 17.9686 14.2831 18.1519 14.0998C18.3351 13.9166 18.5837 13.8136 18.8429 13.8136C19.102 13.8136 19.3506 13.9166 19.5338 14.0998C19.7171 14.2831 19.82 14.5316 19.82 14.7908C19.8196 14.9308 19.7889 15.069 19.7299 15.196C19.6708 15.3229 19.585 15.4356 19.4782 15.5261V22.663V28.1455H18.988V32.6605L19.3718 33.4087L20.1135 34.7923L20.1683 34.7245C20.2377 34.829 20.3455 34.902 20.4683 34.9277C20.5864 34.9357 20.7049 34.9357 20.823 34.9277C24.7599 34.3478 28.372 32.4149 31.0386 29.4611C33.7052 26.5073 35.2599 22.717 35.4355 18.7414C35.4355 18.5092 35.4355 18.277 35.4355 18.0481L32.7329 19.3381C32.4584 22.4314 31.1922 25.3534 29.1229 27.6691C27.0536 29.9848 24.2919 31.5703 21.2487 32.1897Z"
    fill="#172638" />
  <path
    d="M15.9468 3.66484C16.6241 3.57454 17.4303 3.61969 17.253 3.29074C16.8885 2.60704 16.379 1.07839 15.9243 1.05581C15.8061 1.0478 15.6876 1.0478 15.5695 1.05581C12.2388 1.54784 9.12711 3.01114 6.6238 5.26263C4.12049 7.51412 2.3367 10.4538 1.49561 13.7139L4.65288 12.482C5.5954 10.15 7.13542 8.10739 9.11802 6.55959C11.1006 5.01178 13.4559 4.01339 15.9468 3.66484Z"
    fill="#172638" />
  <path
    d="M0.95987 17.2515C0.77 21.7825 2.38343 26.2041 5.44684 29.548C8.51024 32.8918 12.7739 34.8855 17.3042 35.0922C17.9492 35.1213 18.778 35.1664 19.1779 35.0084C19.2456 34.9826 19.0586 34.7697 18.9134 34.5343C18.5329 33.9151 15.9626 29.7323 15.5336 29.1486C14.9886 28.41 15.8207 32.2929 15.3885 32.2349L15.2789 32.2188C15.2789 32.2188 15.2789 32.2188 15.1595 32.1897C11.9236 31.5219 9.01233 29.7698 6.90715 27.223C4.80197 24.6763 3.62888 21.4874 3.58179 18.1836L0.95987 17.0322C0.95987 17.1064 0.95987 17.1773 0.95987 17.2515Z"
    fill="#172638" />
</svg>